<?xml version="1.0" standalone="no"?>
<!DOCTYPE svg PUBLIC "-//W3C//DTD SVG 20010904//EN"
 "http://www.w3.org/TR/2001/REC-SVG-20010904/DTD/svg10.dtd">
<svg version="1.0" xmlns="http://www.w3.org/2000/svg"
 width="512.000000pt" height="512.000000pt" viewBox="0 0 512.000000 512.000000"
 preserveAspectRatio="xMidYMid meet">
<metadata>
Created by potrace 1.14, written by Peter Selinger 2001-2017
</metadata>
<g transform="translate(0.000000,512.000000) scale(0.100000,-0.100000)"
fill="#000000" stroke="none">
<path d="M3769 5060 c-52 -51 -43 -76 69 -190 80 -82 104 -100 132 -104 48 -5
90 33 90 82 0 28 -12 46 -77 115 -97 103 -115 117 -154 122 -25 3 -38 -3 -60
-25z"/>
<path d="M4305 5080 c-11 -4 -62 -51 -112 -103 -104 -105 -114 -132 -69 -183
18 -22 32 -28 62 -27 34 1 47 11 136 101 103 104 111 122 87 176 -17 35 -63
52 -104 36z"/>
<path d="M303 4750 c-77 -46 -54 -172 36 -195 33 -8 87 12 111 42 33 42 27 98
-14 139 -40 40 -83 45 -133 14z"/>
<path d="M3945 4720 c-11 -5 -60 -48 -108 -97 -69 -70 -89 -97 -94 -126 -5
-32 -2 -40 26 -66 23 -22 38 -28 58 -25 41 8 52 16 146 112 75 77 87 94 87
124 0 31 -28 77 -48 79 -4 0 -16 2 -27 4 -11 2 -29 0 -40 -5z"/>
<path d="M4127 4699 c-25 -26 -29 -35 -24 -66 5 -29 25 -55 100 -130 90 -89
108 -99 157 -94 26 3 60 50 60 84 0 28 -15 47 -98 130 -115 115 -144 126 -195
76z"/>
<path d="M1623 4589 c-27 -10 -53 -47 -53 -77 0 -31 17 -60 51 -90 16 -13 29
-29 29 -35 0 -12 -62 -77 -73 -77 -3 0 -18 -5 -34 -11 -15 -6 -28 -10 -28 -9
0 3 -139 -61 -205 -93 -35 -18 -121 -70 -190 -116 l-125 -83 -55 28 c-30 16
-102 57 -160 91 -119 71 -156 78 -195 38 -15 -14 -25 -35 -25 -52 1 -15 38
-104 84 -198 l82 -170 -71 -96 c-196 -262 -322 -577 -362 -901 -10 -80 -10
-394 0 -473 64 -496 341 -974 737 -1271 78 -59 170 -120 202 -135 15 -6 59
-53 97 -103 38 -50 79 -100 90 -110 24 -22 73 -23 104 -3 21 13 25 12 57 -14
33 -28 33 -29 15 -49 -11 -12 -18 -35 -18 -57 0 -40 6 -46 128 -141 75 -58
124 -64 160 -18 l24 29 44 -34 c37 -28 43 -37 37 -55 -19 -50 3 -88 68 -119
143 -68 315 -120 492 -150 174 -29 461 -23 625 11 11 3 42 9 68 14 81 16 217
60 317 103 275 118 499 285 708 527 135 158 308 489 357 685 20 79 46 210 51
260 4 33 8 63 11 67 5 9 4 305 -1 338 -2 14 -7 50 -10 80 -23 207 -122 496
-233 682 l-34 57 77 158 c42 87 121 248 174 358 54 110 152 312 219 449 137
281 143 302 83 342 -42 29 -65 22 -192 -56 -8 -5 -98 -57 -200 -116 -102 -58
-312 -180 -467 -270 -155 -91 -288 -167 -296 -170 -9 -3 -37 26 -79 83 -202
272 -469 482 -788 620 -89 39 -219 81 -300 99 -19 4 -39 9 -45 10 -5 2 -26 6
-45 9 -19 3 -45 8 -57 10 -87 19 -354 26 -490 12 -40 -4 -73 -5 -73 -2 0 2 14
18 31 36 41 42 53 76 39 109 -11 27 -55 58 -77 54 -7 -1 -20 -2 -28 -3 -8 0
-32 -20 -55 -43 l-40 -42 -38 37 c-42 41 -86 58 -119 46z"/>
<path d="M4960 3232 c-47 -23 -70 -84 -50 -132 15 -36 63 -70 98 -70 55 0 112
56 112 110 0 34 -28 78 -60 95 -37 19 -57 19 -100 -3z"/>
<path d="M413 960 c-42 -17 -51 -55 -49 -196 1 -140 7 -157 55 -175 31 -12 82
4 99 32 18 29 18 279 0 308 -12 20 -50 41 -71 40 -7 0 -22 -4 -34 -9z"/>
<path d="M66 600 c-43 -7 -70 -49 -62 -94 11 -59 37 -69 186 -69 160 -1 183 9
196 82 4 24 -24 69 -48 77 -26 9 -229 12 -272 4z"/>
<path d="M573 602 c-53 -8 -80 -89 -45 -131 24 -30 61 -37 194 -36 127 2 149
10 169 63 12 30 -15 88 -44 99 -22 7 -232 11 -274 5z"/>
<path d="M4758 595 c-113 -28 -190 -131 -190 -251 1 -76 29 -140 84 -190 53
-48 99 -66 172 -67 101 -2 191 54 235 145 95 199 -86 418 -301 363z m110 -169
c19 -6 42 -39 47 -67 11 -55 -43 -110 -100 -103 -44 5 -84 53 -79 95 8 67 61
97 132 75z"/>
<path d="M394 437 l-29 -25 -1 -139 c-1 -167 6 -184 83 -199 15 -3 33 5 52 23
29 27 30 32 31 113 3 214 -3 235 -71 246 -29 5 -41 1 -65 -19z"/>
</g>
</svg>
